<?xml version="1.0" ?><svg enable-background="new 0 0 128 128" id="Слой_1" version="1.1" viewBox="0 0 128 128" xml:space="preserve" xmlns="http://www.w3.org/2000/svg" xmlns:xlink="http://www.w3.org/1999/xlink"><g><g><path d="M77.0795898,42.5c-0.5297852,0-1.0395508-0.2099609-1.409668-0.590332    c-0.3798828-0.3696289-0.590332-0.8798828-0.590332-1.409668c0-0.5302734,0.2104492-1.0400391,0.590332-1.4101562    c0.7397461-0.75,2.0800781-0.75,2.8198242,0c0.3798828,0.3701172,0.5898438,0.8798828,0.5898438,1.4101562    c0,0.5297852-0.2099609,1.0400391-0.5898438,1.409668C78.1196289,42.2900391,77.6098633,42.5,77.0795898,42.5z" fill="#3399CC"/></g><g><path d="M84.0498047,42.5c-0.5297852,0-1.0400391-0.2099609-1.4101562-0.590332    c-0.3798828-0.3696289-0.5898438-0.8798828-0.5898438-1.409668c0-0.5302734,0.2099609-1.0400391,0.5898438-1.4101562    c0.7402344-0.75,2.0800781-0.75,2.8203125,0c0.3798828,0.3701172,0.5898438,0.8798828,0.5898438,1.4101562    c0,0.5297852-0.2099609,1.0400391-0.5898438,1.409668C85.0898438,42.2900391,84.5795898,42.5,84.0498047,42.5z" fill="#3399CC"/></g><g><path d="M83.0600586,48.5c-0.5302734,0-1.0400391-0.2099609-1.4204102-0.5800781    C81.2700195,47.5400391,81.0498047,47.0297852,81.0498047,46.5c0-0.5302734,0.2202148-1.0400391,0.5898438-1.4204102    c0.75-0.7397461,2.0800781-0.7397461,2.8300781,0c0.3701172,0.3803711,0.590332,0.8901367,0.590332,1.4204102    c0,0.5297852-0.2202148,1.0400391-0.590332,1.4199219C84.0898438,48.2900391,83.5795898,48.5,83.0600586,48.5z" fill="#3399CC"/></g><g><path d="M70.1098633,42.5c-0.5302734,0-1.0400391-0.2099609-1.4101562-0.590332    c-0.3798828-0.3696289-0.5898438-0.8798828-0.5898438-1.409668c0-0.5302734,0.2099609-1.0400391,0.5898438-1.4101562    c0.7402344-0.75,2.0703125-0.75,2.8203125-0.0102539c0.3798828,0.3803711,0.5898438,0.9003906,0.5898438,1.4204102    s-0.2099609,1.0400391-0.5800781,1.409668C71.1499023,42.2900391,70.6396484,42.5,70.1098633,42.5z" fill="#3399CC"/></g><g><path d="M64.0297852,42.5c-0.5200195,0-1.0400391-0.2099609-1.4101562-0.590332    C62.25,41.5400391,62.0297852,41.0297852,62.0297852,40.5c0-0.5302734,0.2202148-1.0400391,0.5898438-1.4101562    c0.7402344-0.75,2.0800781-0.75,2.8300781,0c0.3701172,0.3701172,0.5800781,0.8798828,0.5800781,1.4101562    c0,0.5297852-0.2099609,1.0400391-0.5800781,1.409668C65.0698242,42.2900391,64.5600586,42.5,64.0297852,42.5z" fill="#3399CC"/></g><g><path d="M82.0600586,54.5c-0.5302734,0-1.0400391-0.2099609-1.4101562-0.590332    c-0.3798828-0.3696289-0.5898438-0.8798828-0.5898438-1.409668c0-0.5302734,0.2099609-1.0400391,0.5898438-1.4204102    c0.7397461-0.7397461,2.0800781-0.7397461,2.8198242,0c0.3798828,0.3803711,0.590332,0.8901367,0.590332,1.4204102    c0,0.5297852-0.2104492,1.0400391-0.590332,1.409668C83.0996094,54.2900391,82.5795898,54.5,82.0600586,54.5z" fill="#3399CC"/></g><g><path d="M46.3540039,89.5c-3.9838867,0-7.2246094-3.2509766-7.2246094-7.2460938    c0-3.9960938,3.2407227-7.2470703,7.2246094-7.2470703c3.9833984,0,7.2241211,3.2509766,7.2241211,7.2470703    C53.578125,86.2490234,50.3374023,89.5,46.3540039,89.5z M46.3540039,79.0068359    c-1.777832,0-3.2246094,1.4570312-3.2246094,3.2470703S44.5761719,85.5,46.3540039,85.5s3.2241211-1.4560547,3.2241211-3.2460938    S48.1318359,79.0068359,46.3540039,79.0068359z" fill="#3399CC"/></g><g><path d="M72.730957,89.5c-3.9833984,0-7.2241211-3.2509766-7.2241211-7.2460938    c0-3.9960938,3.2407227-7.2470703,7.2241211-7.2470703c3.9838867,0,7.2246094,3.2509766,7.2246094,7.2470703    C79.9555664,86.2490234,76.7148438,89.5,72.730957,89.5z M72.730957,79.0068359    c-1.777832,0-3.2241211,1.4570312-3.2241211,3.2470703S70.953125,85.5,72.730957,85.5s3.2246094-1.4560547,3.2246094-3.2460938    S74.5087891,79.0068359,72.730957,79.0068359z" fill="#3399CC"/></g><g><path d="M85.4414062,78c-0.0083008,0-0.0161133,0-0.0239258,0l-50.1611328-0.4594727    c-0.9819336-0.0117188-1.8100586-0.670166-1.9545898-1.6408691l-5.1679688-34.6368408    c-0.0859375-0.5756836,0.0830078-1.144104,0.4633789-1.5845337C28.9770508,39.2373657,29.5297852,39,30.1118164,39H58    c1.1044922,0,2,0.8955078,2,2s-0.8955078,2-2,2H32.4321289l4.574707,30.6894531l46.8173828,0.5478516l7.128418-33.6518555    C91.1484375,39.6611328,91.9643555,39,92.9091797,39H98c1.1044922,0,2,0.8955078,2,2s-0.8955078,2-2,2h-3.4702148    l-7.1323242,33.5424805C87.2016602,77.4682617,86.3847656,78,85.4414062,78z" fill="#3399CC"/></g></g></svg>